<mxfile host="Electron" modified="2023-10-09T21:13:42.364Z" agent="Mozilla/5.0 (Windows NT 10.0; Win64; x64) AppleWebKit/537.36 (KHTML, like Gecko) draw.io/22.0.2 Chrome/114.0.5735.289 Electron/25.8.4 Safari/537.36" etag="dmvL2Q1OsjRX3TC63UG2" version="22.0.2" type="device">
  <diagram name="Page-1" id="YJaVd2mRH7kxd35NQ7zP">
    <mxGraphModel dx="1164" dy="851" grid="0" gridSize="10" guides="1" tooltips="1" connect="1" arrows="1" fold="1" page="1" pageScale="1" pageWidth="1169" pageHeight="827" math="0" shadow="0">
      <root>
        <mxCell id="0" />
        <mxCell id="1" parent="0" />
        <mxCell id="c-2LaEQzB04zMDGG6wzM-16" value="Common Services" style="rounded=0;whiteSpace=wrap;html=1;verticalAlign=bottom;" parent="1" vertex="1">
          <mxGeometry x="180.82" y="414" width="590" height="225" as="geometry" />
        </mxCell>
        <mxCell id="c-2LaEQzB04zMDGG6wzM-1" value="Key Vault" style="image;aspect=fixed;html=1;points=[];align=center;fontSize=12;image=img/lib/azure2/security/Key_Vaults.svg;" parent="1" vertex="1">
          <mxGeometry x="549" y="463" width="120" height="120" as="geometry" />
        </mxCell>
        <mxCell id="c-2LaEQzB04zMDGG6wzM-11" style="edgeStyle=orthogonalEdgeStyle;rounded=0;orthogonalLoop=1;jettySize=auto;html=1;" parent="1" source="c-2LaEQzB04zMDGG6wzM-2" target="c-2LaEQzB04zMDGG6wzM-10" edge="1">
          <mxGeometry relative="1" as="geometry" />
        </mxCell>
        <mxCell id="c-2LaEQzB04zMDGG6wzM-18" style="edgeStyle=none;rounded=0;orthogonalLoop=1;jettySize=auto;html=1;entryX=0.5;entryY=0;entryDx=0;entryDy=0;" parent="1" source="c-2LaEQzB04zMDGG6wzM-2" target="c-2LaEQzB04zMDGG6wzM-16" edge="1">
          <mxGeometry relative="1" as="geometry" />
        </mxCell>
        <mxCell id="c-2LaEQzB04zMDGG6wzM-2" value="Container App&lt;br&gt;Games API" style="image;aspect=fixed;html=1;points=[];align=center;fontSize=12;image=img/lib/azure2/other/Worker_Container_App.svg;" parent="1" vertex="1">
          <mxGeometry x="414" y="200" width="123.64" height="120" as="geometry" />
        </mxCell>
        <mxCell id="c-2LaEQzB04zMDGG6wzM-17" style="edgeStyle=none;rounded=0;orthogonalLoop=1;jettySize=auto;html=1;" parent="1" source="c-2LaEQzB04zMDGG6wzM-4" target="c-2LaEQzB04zMDGG6wzM-16" edge="1">
          <mxGeometry relative="1" as="geometry" />
        </mxCell>
        <mxCell id="c-2LaEQzB04zMDGG6wzM-4" value="Container App&lt;br&gt;Bot Service" style="image;aspect=fixed;html=1;points=[];align=center;fontSize=12;image=img/lib/azure2/other/Worker_Container_App.svg;" parent="1" vertex="1">
          <mxGeometry x="120" y="200" width="123.64" height="120" as="geometry" />
        </mxCell>
        <mxCell id="c-2LaEQzB04zMDGG6wzM-5" value="App Configuration" style="image;aspect=fixed;html=1;points=[];align=center;fontSize=12;image=img/lib/azure2/integration/App_Configuration.svg;" parent="1" vertex="1">
          <mxGeometry x="265" y="459" width="112.94" height="120" as="geometry" />
        </mxCell>
        <mxCell id="c-2LaEQzB04zMDGG6wzM-6" style="edgeStyle=orthogonalEdgeStyle;rounded=0;orthogonalLoop=1;jettySize=auto;html=1;entryX=-0.032;entryY=0.5;entryDx=0;entryDy=0;entryPerimeter=0;" parent="1" source="c-2LaEQzB04zMDGG6wzM-4" target="c-2LaEQzB04zMDGG6wzM-2" edge="1">
          <mxGeometry relative="1" as="geometry" />
        </mxCell>
        <mxCell id="c-2LaEQzB04zMDGG6wzM-10" value="Cosmos DB" style="image;aspect=fixed;html=1;points=[];align=center;fontSize=12;image=img/lib/azure2/databases/Azure_Cosmos_DB.svg;" parent="1" vertex="1">
          <mxGeometry x="680" y="200" width="120" height="120" as="geometry" />
        </mxCell>
        <mxCell id="MqvdgbNEy2dephECNobF-1" value="Managed Identity" style="image;aspect=fixed;html=1;points=[];align=center;fontSize=12;image=img/lib/azure2/identity/Managed_Identities.svg;" vertex="1" parent="1">
          <mxGeometry x="148" y="106" width="68" height="66" as="geometry" />
        </mxCell>
        <mxCell id="MqvdgbNEy2dephECNobF-2" value="Managed Identity" style="image;aspect=fixed;html=1;points=[];align=center;fontSize=12;image=img/lib/azure2/identity/Managed_Identities.svg;" vertex="1" parent="1">
          <mxGeometry x="434" y="109" width="68" height="66" as="geometry" />
        </mxCell>
      </root>
    </mxGraphModel>
  </diagram>
</mxfile>
